<?xml version="1.0" standalone="no"?>
<svg viewBox="0 0 200 200" xmlns="http://www.w3.org/2000/svg">
  <path fill="#FFD6E8" d="M24,-36.9C34.4,-30.6,48.4,-29.6,58.5,-22.4C68.5,-15.1,74.6,-1.8,75.6,12.9C76.6,27.5,72.5,43.4,63.2,55.4C53.8,67.5,39.2,75.8,26.6,70.1C14,64.4,3.3,44.8,-5.9,35.2C-15.2,25.7,-22.9,26.1,-34.9,23.8C-46.9,21.5,-63.1,16.5,-71.4,5.9C-79.7,-4.7,-80.2,-20.8,-75.4,-35.7C-70.5,-50.6,-60.3,-64.3,-46.9,-69.1C-33.4,-73.9,-16.7,-69.8,-5,-62.1C6.8,-54.4,13.6,-43.1,24,-36.9Z" transform="translate(100 100)" />
</svg>
