<?xml version="1.0" standalone="no"?>
<svg viewBox="0 0 200 200" xmlns="http://www.w3.org/2000/svg">
  <path fill="#F1C21B" d="M40.9,-65C53,-55.8,63,-44.6,63.4,-32.3C63.7,-20.1,54.5,-6.8,51.2,6.5C48,19.8,50.9,33.2,44.6,36.5C38.4,39.8,23,33,9.8,39.9C-3.4,46.7,-14.6,67.1,-28,73.3C-41.4,79.4,-57.1,71.3,-65.6,58.5C-74.2,45.8,-75.5,28.4,-70.9,14.4C-66.3,0.5,-55.8,-10.1,-51,-24.4C-46.2,-38.6,-47,-56.4,-39.4,-67.8C-31.8,-79.1,-15.9,-83.9,-0.8,-82.7C14.4,-81.5,28.7,-74.3,40.9,-65Z" transform="translate(100 100)" />
</svg>
